<svg width="566" height="294" viewBox="0 0 566 294" fill="none" xmlns="http://www.w3.org/2000/svg">
<!-- Tile 566x294 = 2x a logo (283x147): logo ocupa ~50% → gap de ~1 logo entre elas.
     Ao repetir (background-repeat), gera logos pequenas e densas (uma logo, pula 1, outra)
     cobrindo todo o retângulo. Centralizada via translate; resto transparente. -->
<g opacity="0.1" fill="#FF9800" transform="translate(141.5 73.5)">
<path d="M229 24.0027L232 29.0001L142 115L51 29L53.5 24.5L142 108L229 24.0027Z"/>
<path d="M97 2.00928C103.783 9.03828 142 48.0093 142 48.0093V2.00928H97Z"/>
<path d="M142 48.0093L186.468 2C186.468 2 160.965 2.00928 142 2.00928V48.0093Z"/>
<path d="M232 29.0001L215 0H283L232 29.0001Z"/>
<path d="M283 0L246 21L234 56.99L257 59H263L283 0Z"/>
<path d="M263 58.9968V130.001L283 147V0L263 58.9968Z"/>
<path d="M234 57V103L257 58.9906L234 57Z"/>
<path d="M257 59L234 103.009L257 124V59Z"/>
<path d="M234 103L192 124H257L234 103Z"/>
<path d="M181 117L194.5 103H234L192 124L181 117Z"/>
<path d="M181 117L192 124L198 130L188.286 147H152.5L181 117Z"/>
<path d="M198 130L188.254 147L283 147L198 130Z"/>
<path d="M263 130L198 130L283 147L263 130Z"/>
<path d="M263 59C256.914 59 256.914 59 256.914 59C256.914 79.4826 256.935 104.245 256.914 123.987H192L198.086 129.986C198.086 129.986 263 130.017 263 129.986V59Z"/>
<path d="M232 29.0001L246 21L234 57L179 110L142 147V115L174.5 84L232 29.0001Z"/>
<path d="M51.1346 29L37 21L49.1154 57L104.644 110L142 147V115L109.188 84L51.1346 29Z"/>
<path d="M229.5 24.5L142 108V74L215 0L229.5 24.5Z"/>
<path d="M51 29L68 0H0L51 29Z"/>
<path d="M0 0L37 21L49 56.99L26 59H20L0 0Z"/>
<path d="M20 58.9968V130.001L0 147V0L20 58.9968Z"/>
<path d="M49 57V103L26 58.9906L49 57Z"/>
<path d="M26 59L49 103.009L26 124L26 59Z"/>
<path d="M49 103L91 124H26L49 103Z"/>
<path d="M102 117L88.5 103H49L91 124L102 117Z"/>
<path d="M102 117L91 124L85 130L94.7143 147H130.5L102 117Z"/>
<path d="M85 130L94.7459 147L0 147L85 130Z"/>
<path d="M20 130L85 130L0 147L20 130Z"/>
<path d="M20 59C26.0857 59 26.0857 59 26.0857 59C26.0857 79.4826 26.0647 104.245 26.0857 123.987H91L84.9143 129.986C84.9143 129.986 20 130.017 20 129.986V59Z"/>
<path d="M53.5 24.5L142 108V74L68 0L53.5 24.5Z"/>
</g>
</svg>
