<svg width="703" height="180" viewBox="0 0 703 180" fill="none" xmlns="http://www.w3.org/2000/svg">
<g id="logo-level-flaten">
<g id="Vector">
<path d="M436 57.0026H533L525 62H439L349 148L262 63L211.269 63.0655H175C175 63.0655 175.015 58.743 175 57H264C297.195 89.804 349 141 349 141L436 57.0026Z" fill="#AEC7E0"/>
<path d="M24 84.6844L18 80.0094V148.684H91L94 142.684H24V84.6844Z" fill="#AEC7E0"/>
<path d="M305 0.00921631C311.783 7.03822 350 46.0092 350 46.0092V0.00921631H305Z" fill="#AEC7E0"/>
<path d="M156 86.0094H162V145.009H156V86.0094Z" fill="#AEC7E0"/>
<path d="M363.599 31.502C373.916 21.045 384.288 10.588 394.468 0C394.468 0 368.965 0.00921631 350 0.00921631V46.0092C351.226 44.6844 361.35 33.781 363.599 31.502Z" fill="#FF9800"/>
<path d="M27 58.5094L49 81.0094L24 84.6844L18 80.0094L0 32.0094L27 58.5094Z" fill="#FFB74D"/>
<path d="M18 80.0094V148.684L0 169.509V32.0094L18 80.0094Z" fill="#F57C00"/>
<path d="M49 81.0094V124.009L24 84.6844L49 81.0094Z" fill="#FB8C00"/>
<path d="M24 84.6844L49 124.009L24 142.684V84.6844Z" fill="#D84315"/>
<path d="M49 124.009L94 142.684H24.078L49 124.009Z" fill="#C66900"/>
<path d="M94 142.684L136 124.009H49L94 142.684Z" fill="#FFB74D"/>
<path d="M136 124.009V137.009L106 169.009L91 148.684L94 142.684L136 124.009Z" fill="#FFCC80"/>
<path d="M91 148.684L106 169.037L0 169.509L91 148.684Z" fill="#BF360C"/>
<path d="M18 148.684H91L0 169.509L18 148.684Z" fill="#C66900"/>
<path d="M24 84.6844L18 80.0094V148.684H91L94 142.684H24V84.6844Z" fill="#AEC7E0"/>
<path d="M27 58.5094L49 81.0094L24 84.6844L18 80.0094L0 32.0094L27 58.5094Z" fill="#FFB74D"/>
<path d="M18 80.0094V148.684L0 169.509V32.0094L18 80.0094Z" fill="#F57C00"/>
<path d="M49 81.0094V124.009L24 84.6844L49 81.0094Z" fill="#FB8C00"/>
<path d="M24 84.6844L49 124.009L24 142.684V84.6844Z" fill="#D84315"/>
<path d="M49 124.009L94 142.684H24.078L49 124.009Z" fill="#C66900"/>
<path d="M94 142.684L136 124.009H49L94 142.684Z" fill="#FFB74D"/>
<path d="M136 124.009V137.009L106 169.009L91 148.684L94 142.684L136 124.009Z" fill="#FFCC80"/>
<path d="M91 148.684L106 169.037L0 169.509L91 148.684Z" fill="#BF360C"/>
<path d="M18 148.684H91L0 169.509L18 148.684Z" fill="#C66900"/>
<path d="M575 34.0094L618 78.0094L595 80H589L569 34.0094H575Z" fill="#FFB74D"/>
<path d="M589 80V151.009L569 168.009V34L589 80Z" fill="#F57C00"/>
<path d="M618 78.0094V124.009L595 80L618 78.0094Z" fill="#FB8C00"/>
<path d="M595 80L618 124.009L595 145V80Z" fill="#D84315"/>
<path d="M618 124.009L659 145H595L618 124.009Z" fill="#C66900"/>
<path d="M659 145L703 124.009H618L659 145Z" fill="#FFB74D"/>
<path d="M527 145L569 119H444L527 145Z" fill="#FFB74D"/>
<path d="M703 124.009L659 145L653 151.009L663 168.009L703 124.009Z" fill="#FFCC80"/>
<path d="M653 151.009L663 168.009H569L653 151.009Z" fill="#BF360C"/>
<path d="M589 151.009L653 151.009L569 168.009L589 151.009Z" fill="#C66900"/>
<path d="M168 34.0094L175 57.0094L136 67.5094L168 34.0094Z" fill="#FFCC80"/>
<path d="M175 57.0094V63.0094L156 80.0094L136 67.5094L175 57.0094Z" fill="#E65100"/>
<path d="M136 67.5094L156 80.0094L136 169.009V67.5094Z" fill="#EF6C00"/>
<path d="M156 80.0094V151.009L136 169.009L156 80.0094Z" fill="#BF360C"/>
<path d="M156 151.009L262 169.009H136L156 151.009Z" fill="#D84315"/>
<path d="M262 169.009L245 145.009L233 151.009H156.08L262 169.009Z" fill="#C66900"/>
<path d="M295 169.009H262L245 145.009L265 139.509L295 169.009Z" fill="#BF360C"/>
<path d="M168 34.0094H239L175 57.0094L168 34.0094Z" fill="#FFB74D"/>
<path d="M264 57.0094H175L239 34L264 57.0094Z" fill="#FFA000"/>
<path d="M175 63.0094H262L245 80.0094H156L175 63.0094Z" fill="#F57C00"/>
<path d="M162 119.009L245 145.009H162V119.009Z" fill="#C66900"/>
<path d="M233 86.0094L162 112.684V86.0094H233Z" fill="#FFCC80"/>
<path d="M245 80.0094L245 112.684H162L233 86.0094L245 80.0094Z" fill="#D84315"/>
<path d="M156 145.009H245L233 151.009H156V145.009Z" fill="#AEC7E0"/>
<path d="M156 112.684H245L233 118.684H156V112.684Z" fill="#AEC7E0"/>
<path d="M245 112.684L245 120.009L265 139.509L245 145.009L161 118.684H233L245 112.684Z" fill="#E65100"/>
<path d="M401 55L422 33.9999L436 56.9999L401 55Z" fill="#FFE0B2"/>
<path d="M439 62H456L438 80L425.5 75L439 62Z" fill="#E65100"/>
<path d="M425.5 74.5L438 80L419 168V111L425.5 74.5Z" fill="#EF6C00"/>
<path d="M438 80V151L419 168L438 80Z" fill="#BF360C"/>
<path d="M438 151L535 169L419 168L438 151Z" fill="#D84315"/>
<path d="M535 169L527 145L514.92 151L438 151L535 169Z" fill="#C66900"/>
<path d="M569 119L535 169L527 145L569 119Z" fill="#BF360C"/>
<path d="M422 33.9999L506 34L436 56.9999L422 33.9999Z" fill="#FB8C00"/>
<path d="M533 57L436 56.9999L506 34L533 57Z" fill="#FFA000"/>
<path d="M456 62H525L501 80H438L456 62Z" fill="#F57C00"/>
<path d="M444 119L527 145H444V119Z" fill="#C66900"/>
<path d="M515 86L444 113V86H515Z" fill="#FFCC80"/>
<path d="M527 80V113H444L515 86L527 80Z" fill="#D84315"/>
<path d="M589 80.0094C595 80.0094 595 80.0094 595 80.0094C595 100.493 594.979 125.257 595 145H659L653 151C653 151 589 151.031 589 151V80.0094Z" fill="#AEC7E0"/>
<path d="M438 80H527L515 86H438V80Z" fill="#AEC7E0"/>
<path d="M438 113H527L515 119H438V113Z" fill="#AEC7E0"/>
<path d="M438 145H527L515 151L438 151V145Z" fill="#AEC7E0"/>
<path d="M438 86.0094H444V145.009H438V86.0094Z" fill="#AEC7E0"/>
<path d="M156 80.0094H245L233 86.0094H156V80.0094Z" fill="#AEC7E0"/>
<path d="M239 34H277L300 57H264L239 34Z" fill="#C66900"/>
<path d="M300 57L349 107L334.5 126.5L300 57Z" fill="#FFB74D"/>
<path d="M425.5 75L419 111L386 143L349 158.5V148L425.5 75Z" fill="#F57C00"/>
<path d="M436 56.9999L378.5 112.5L349 107L401 55L436 56.9999Z" fill="#FFCC80"/>
<path d="M349 107L378.5 112.5L349 141L334.5 126.5L349 107Z" fill="#BF360C"/>
<path d="M295 95.5L349 148V158.5L309 141.5L297 130L245 80L295 95.5Z" fill="#FFD180"/>
<path d="M349 158.5L386 143L349 180L320 152L309 141.5L349 158.5Z" fill="#D84315"/>
<path d="M262 63L295 95.5L245 80L262 63Z" fill="#E65100"/>
<path d="M506 34H569L533 57L506 34Z" fill="#C66900"/>
<path d="M569 34V57L567 61L525 62L569 34Z" fill="#FFB74D"/>
<path d="M527 113V80L544 119H515L527 113Z" fill="#D84315"/>
<path d="M567 61L544 91V119L527 80L567 61Z" fill="#A85A00"/>
<path d="M525 62L567 61L527 80H501L525 62Z" fill="#EF6C00"/>
<path d="M264 57H300L334.5 126.5L264 57Z" fill="#E65100"/>
</g>
</g>
</svg>
